<svg xmlns="http://www.w3.org/2000/svg" viewBox="0 0 73 30"><path fill="#FFF" d="M18.953 22.407c0 .767.146 1.484.43 2.16a5.714 5.714 0 0 0 1.176 1.764 5.608 5.608 0 0 0 1.736 1.196c.664.297 1.37.445 2.125.445 1.03 0 1.963-.256 2.798-.767a5.512 5.512 0 0 0 1.963-2.012.951.951 0 0 1 .625-.453 1 1 0 0 1 .754.099 1 1 0 0 1 .446.65 1.08 1.08 0 0 1-.13.817c-.64 1.114-1.54 2.004-2.685 2.68-1.143.676-2.409 1.014-3.78 1.014a7.393 7.393 0 0 1-2.912-.586 7.486 7.486 0 0 1-2.376-1.616 7.496 7.496 0 0 1-1.59-2.415 7.544 7.544 0 0 1-.576-2.96v-5.91c0-1.047.195-2.028.576-2.96a7.63 7.63 0 0 1 1.59-2.415 7.688 7.688 0 0 1 2.376-1.633 7.1 7.1 0 0 1 2.913-.602c1.37 0 2.628.347 3.78 1.048 1.143.7 2.044 1.616 2.685 2.745.13.239.162.503.113.783a.956.956 0 0 1-.43.651 1 1 0 0 1-.754.099c-.268-.066-.487-.23-.657-.486a5.755 5.755 0 0 0-1.963-2.028 5.147 5.147 0 0 0-2.766-.783 5.14 5.14 0 0 0-2.125.445 5.5 5.5 0 0 0-1.736 1.212 5.886 5.886 0 0 0-1.177 1.78 5.371 5.371 0 0 0-.43 2.16v5.878zm13.538-.42a7.77 7.77 0 0 1 .592-3.026 7.891 7.891 0 0 1 4.064-4.196 7.47 7.47 0 0 1 2.96-.651c.341 0 .617.098.82.297a.967.967 0 0 1 .308.717.97.97 0 0 1-.308.717c-.203.198-.479.297-.82.297-.77.024-1.5.19-2.19.503a5.849 5.849 0 0 0-1.8 1.261 5.805 5.805 0 0 0-1.639 4.089v6.99c0 .281-.097.52-.292.718a.954.954 0 0 1-.706.297.954.954 0 0 1-.705-.297.985.985 0 0 1-.292-.717v-7h.008zm11.137 2.72c.297.625.703 1.19 1.2 1.665.489.46 1.048.836 1.655 1.113a5.676 5.676 0 0 0 3.983.24 5.458 5.458 0 0 0 1.995-1.08 6.049 6.049 0 0 0 1.404-1.715.951.951 0 0 1 .592-.487.947.947 0 0 1 .763.074.96.96 0 0 1 .478.602.991.991 0 0 1-.073.775c-.446.982-1.046 1.764-1.8 2.35-.755.585-1.688 1.047-2.791 1.393a7.727 7.727 0 0 1-3.042.322 7.583 7.583 0 0 1-5.134-2.72 7.765 7.765 0 0 1-1.477-2.82c-.308-1.039-.414-2.078-.3-3.1a7.854 7.854 0 0 1 .86-2.86 8.227 8.227 0 0 1 1.882-2.359 8.538 8.538 0 0 1 2.766-1.59c.957-.3 1.966-.39 2.96-.264a8.12 8.12 0 0 1 2.8.882 7.817 7.817 0 0 1 2.31 1.846 8.013 8.013 0 0 1 1.517 2.671c.146.338.139.643-.016.89-.162.256-.365.421-.608.496l-11.924 3.676zm3.496-8.21c-.658.2-1.274.521-1.817.947a6.032 6.032 0 0 0-1.338 1.476 5.555 5.555 0 0 0-.763 1.822 6.477 6.477 0 0 0-.122 2.02l10.862-3.347a5.887 5.887 0 0 0-1.217-1.608 5.659 5.659 0 0 0-1.646-1.08 6.213 6.213 0 0 0-1.923-.47 5.395 5.395 0 0 0-2.036.24zm18.065-2.317c1.2.04 2.295.354 3.276.931a10.675 10.675 0 0 1 2.54 2.045V9.934c0-.28.097-.52.292-.717a.954.954 0 0 1 .705-.297c.276 0 .511.099.706.297a.985.985 0 0 1 .292.717v12.184c0 1.13-.203 2.177-.608 3.133a7.59 7.59 0 0 1-4.146 4.114 7.636 7.636 0 0 1-2.993.585 7.57 7.57 0 0 1-3.058-.618 7.715 7.715 0 0 1-2.457-1.698 8.137 8.137 0 0 1-1.655-2.498 7.602 7.602 0 0 1-.609-3.026c0-1.088.211-2.11.625-3.075a8.359 8.359 0 0 1 1.687-2.514 8.088 8.088 0 0 1 2.458-1.715 7.082 7.082 0 0 1 2.945-.626zm5.816 7.939a6.71 6.71 0 0 0-.528-2.35 5.915 5.915 0 0 0-1.24-1.863 5.621 5.621 0 0 0-1.801-1.228 5.444 5.444 0 0 0-2.19-.437 5.73 5.73 0 0 0-2.248.453 5.79 5.79 0 0 0-1.849 1.262 5.896 5.896 0 0 0-1.241 1.879 5.879 5.879 0 0 0-.454 2.284c0 .807.146 1.566.454 2.266a5.914 5.914 0 0 0 1.241 1.864 5.79 5.79 0 0 0 1.85 1.26c.705.306 1.46.455 2.246.455.795 0 1.541-.149 2.231-.454a5.914 5.914 0 0 0 3.074-3.124 5.6 5.6 0 0 0 .455-2.267zM2.583 24.707c.297.625.704 1.19 1.2 1.665.489.46 1.048.836 1.655 1.113a5.679 5.679 0 0 0 3.984.24 5.462 5.462 0 0 0 1.995-1.08 6.049 6.049 0 0 0 1.403-1.715.951.951 0 0 1 .592-.487.947.947 0 0 1 .763.074c.243.132.397.33.479.602a.995.995 0 0 1-.073.775c-.447.982-1.047 1.764-1.801 2.35-.755.585-1.688 1.047-2.791 1.393a7.727 7.727 0 0 1-3.042.322 7.585 7.585 0 0 1-2.823-.841 7.686 7.686 0 0 1-2.311-1.88C1.148 26.447.669 25.49.345 24.411a7.804 7.804 0 0 1-.3-3.1 7.854 7.854 0 0 1 .86-2.861 8.24 8.24 0 0 1 1.881-2.358A8.538 8.538 0 0 1 5.552 14.5c.958-.3 1.967-.39 2.96-.263a8.11 8.11 0 0 1 2.8.882 7.825 7.825 0 0 1 2.311 1.846 8.013 8.013 0 0 1 1.517 2.671c.146.338.138.643-.016.89-.162.256-.365.42-.609.495L2.583 24.707zm3.496-8.21c-.658.2-1.273.521-1.816.947a6.235 6.235 0 0 0-1.347 1.476 5.555 5.555 0 0 0-.763 1.822 6.477 6.477 0 0 0-.121 2.02l10.861-3.347a5.887 5.887 0 0 0-1.217-1.608 5.659 5.659 0 0 0-1.646-1.08 6.213 6.213 0 0 0-1.923-.47 5.354 5.354 0 0 0-2.028.24zM40.627 5.21a.12.12 0 0 1 0-.174l.26-.305c.048-.05.121-.033.17 0 .438.363 1.07.676 1.84.676.99 0 1.477-.445 1.477-1.112 0-.578-.251-.9-1.297-1.015l-.568-.057c-1.063-.107-1.655-.627-1.655-1.534 0-1.055.746-1.682 1.995-1.682.77 0 1.436.256 1.89.553a.13.13 0 0 1 .024.173l-.21.289c-.033.057-.106.074-.17.033C44.016.84 43.408.61 42.808.61c-.868 0-1.323.388-1.323 1.031 0 .568.35.873 1.306.965l.568.057C44.464 2.77 45 3.314 45 4.213c0 1.096-.763 1.797-2.174 1.797a3.387 3.387 0 0 1-2.198-.8zm5.945-.718c-.105-.354-.17-.75-.17-1.484 0-.725.057-1.146.17-1.5.309-.965 1.08-1.5 2.11-1.5 1.03 0 1.808.535 2.116 1.5.122.363.17.733.17 1.533 0 .074-.048.124-.129.124H47.14c-.048 0-.073.033-.073.082 0 .487.033.75.122 1.014.26.759.835 1.122 1.606 1.122.738 0 1.25-.314 1.582-.734.049-.058.105-.074.17-.025l.276.256c.057.049.057.107.008.173-.414.568-1.128.964-2.068.964-1.12 0-1.866-.528-2.19-1.525zm3.667-1.88c.048 0 .073-.024.073-.074 0-.354-.032-.601-.105-.832C49.979.99 49.436.619 48.68.619c-.738 0-1.281.37-1.508 1.088-.073.23-.106.486-.106.832 0 .05.025.074.073.074h3.099zm2.644 3.282c-.073 0-.121-.05-.121-.124V.247c0-.074.048-.123.121-.123h.406c.073 0 .122.05.122.123v.734h.008C53.629.413 54.14 0 54.944 0c.454 0 .867.157 1.143.396.057.033.073.099.025.156l-.235.338c-.05.058-.106.058-.179.025a1.57 1.57 0 0 0-.9-.288c-.998 0-1.38.882-1.38 1.945v3.19c0 .075-.048.124-.12.124h-.415v.009zm4.753-4.848c-.056.05-.129.05-.178-.008l-.203-.305c-.032-.058-.024-.123.033-.173.405-.355 1.014-.553 1.809-.553 1.476 0 2.068.495 2.068 1.913v3.858c0 .074-.049.124-.122.124h-.372c-.073 0-.122-.05-.122-.124v-.601h-.008c-.228.486-.836.848-1.76.848-1.145 0-1.907-.577-1.907-1.706 0-1.146.77-1.707 2.15-1.707h1.435c.049 0 .073-.024.073-.074v-.593c0-.94-.324-1.327-1.476-1.327-.681 0-1.087.156-1.42.428zm2.905 3.075V3.24c0-.049-.025-.074-.073-.074h-1.355c-1.128 0-1.606.371-1.606 1.138 0 .725.503 1.113 1.403 1.113.974 0 1.63-.511 1.63-1.294zm2.303 1.089a.12.12 0 0 1 0-.174l.26-.305c.049-.05.122-.033.17 0a2.89 2.89 0 0 0 1.842.676c.989 0 1.476-.445 1.476-1.112 0-.578-.251-.9-1.298-1.015l-.568-.057c-1.054-.107-1.655-.627-1.655-1.534 0-1.055.747-1.682 1.996-1.682.77 0 1.436.256 1.89.553a.13.13 0 0 1 .024.173l-.21.289c-.033.057-.106.074-.171.033C66.235.84 65.627.61 65.026.61c-.868 0-1.322.388-1.322 1.031 0 .568.35.873 1.306.965l.568.057c1.103.107 1.639.651 1.639 1.55 0 1.096-.763 1.797-2.174 1.797a3.387 3.387 0 0 1-2.199-.8zm6.62-4.164c-.057.05-.13.05-.179-.008l-.203-.305c-.033-.058-.024-.123.033-.173.405-.355 1.013-.553 1.808-.553 1.477 0 2.069.495 2.069 1.913v3.858c0 .074-.049.124-.122.124h-.381c-.073 0-.122-.05-.122-.124v-.601h-.008c-.227.486-.835.848-1.76.848-1.144 0-1.906-.577-1.906-1.706 0-1.146.77-1.707 2.15-1.707h1.435c.049 0 .073-.024.073-.074v-.593c0-.94-.324-1.327-1.476-1.327-.673 0-1.079.156-1.412.428zm2.903 3.075V3.24c0-.049-.024-.074-.073-.074H70.94c-1.128 0-1.606.371-1.606 1.138 0 .725.502 1.113 1.403 1.113.973 0 1.63-.511 1.63-1.294z"/></svg>